<?xml version="1.0"?><svg xmlns="http://www.w3.org/2000/svg"  viewBox="0 0 30 30" width="30px" height="30px">    <path d="M 24 1 L 11.853516 13.146484 C 11.538516 13.461484 11.762031 14 12.207031 14 L 15 14 L 10.683594 19.179688 C 10.412594 19.505688 10.642406 20 11.066406 20 L 13 20 L 7 29 L 18.146484 17.853516 C 18.461484 17.538516 18.237969 17 17.792969 17 L 16 17 L 20.316406 11.820312 C 20.587406 11.494312 20.357594 11 19.933594 11 L 17 11 L 24 1 z M 15 3 C 8.383 3 3 8.383 3 15 C 3 18.838 4.8188594 22.251219 7.6308594 24.449219 L 8.7382812 22.785156 C 6.4612812 20.950156 5 18.145 5 15 C 5 9.486 9.486 5 15 5 C 15.676 5 16.336609 5.0682656 16.974609 5.1972656 L 18.613281 3.5585938 C 17.472281 3.1965937 16.259 3 15 3 z M 22.929688 6.0175781 L 21.775391 7.6660156 C 23.752391 9.4940156 25 12.101 25 15 C 25 20.514 20.514 25 15 25 C 14.626 25 14.256578 24.975547 13.892578 24.935547 L 12.177734 26.650391 C 13.084734 26.870391 14.026 27 15 27 C 21.617 27 27 21.617 27 15 C 27 11.424 25.419687 8.2175781 22.929688 6.0175781 z"/></svg>