<svg xmlns="http://www.w3.org/2000/svg" xmlns:v="https://svgstorm.com"
viewBox = "0 0 30 30"
width="30"
height="30">
<g fill="None" fill-opacity="0.0" stroke="#000000" stroke-opacity="0.04" stroke-width="0.3"><path d="
M 0.00 30.00 
L 30.00 30.00
L 30.00 0.00
L 0.00 0.00
L 0.00 30.00
M 26.00 8.00 
C 26.43 14.90 24.08 21.69 27.00 28.00
C 23.61 28.84 24.79 26.16 24.00 24.00
C 17.39 30.15 9.48 28.00 4.00 21.00
C 0.56 5.83 15.28 -4.19 26.00 8.00 Z"/>
</g>
<g fill="None" fill-opacity="0.0" stroke="#000000" stroke-opacity="0.87" stroke-width="0.3"><path d="
M 26.00 8.00 
C 15.28 -4.19 0.56 5.83 4.00 21.00
C 9.48 28.00 17.39 30.15 24.00 24.00
C 24.79 26.16 23.61 28.84 27.00 28.00
C 24.08 21.69 26.43 14.90 26.00 8.00
M 11.00 7.00 
C 10.09 10.31 16.30 7.21 20.00 8.00
C 20.33 8.07 21.78 8.82 22.00 9.00
C 23.31 9.31 24.94 10.83 22.00 10.00
C 21.55 10.15 20.50 10.00 20.00 10.00
C 15.11 10.00 10.65 10.15 6.00 11.00
C 7.55 9.45 7.83 6.83 10.00 6.00
C 10.82 2.81 17.77 5.41 20.00 5.00
C 19.32 9.38 13.64 5.22 11.00 7.00
M 24.00 14.00 
C 19.00 15.03 11.27 13.67 6.00 15.00
C 7.31 10.16 21.17 10.56 24.00 14.00
M 12.00 16.00 
C 13.00 17.00 10.39 19.03 9.32 17.66 C 8.25 16.29 11.32 15.32 12.00 16.00
M 21.00 16.00 
C 22.00 17.00 19.39 19.03 18.32 17.66 C 17.25 16.29 20.32 15.32 21.00 16.00
M 24.00 19.00 
C 21.02 24.17 16.78 27.66 11.00 25.00
C 13.08 23.16 17.00 24.72 19.00 22.00
C 15.52 20.64 7.16 24.20 6.00 18.00
C 11.36 21.24 18.13 19.69 24.00 19.00 Z"/>
</g>
<g fill="None" fill-opacity="0.0" stroke="#000000" stroke-opacity="0.41" stroke-width="0.3"><path d="
M 10.00 6.00 
C 10.25 5.92 10.82 6.99 11.00 7.00
C 13.64 5.22 19.32 9.38 20.00 5.00
C 17.77 5.41 10.82 2.81 10.00 6.00 Z"/>
</g>
<g fill="None" fill-opacity="0.0" stroke="#000000" stroke-opacity="0.28" stroke-width="0.3"><path d="
M 20.00 10.00 
C 19.75 9.75 19.77 8.34 20.00 8.00
C 16.30 7.21 10.09 10.31 11.00 7.00
C 10.82 6.99 10.25 5.92 10.00 6.00
C 7.83 6.83 7.55 9.45 6.00 11.00
C 10.65 10.15 15.11 10.00 20.00 10.00 Z"/>
</g>
<g fill="None" fill-opacity="0.0" stroke="#000000" stroke-opacity="0.09" stroke-width="0.3"><path d="
M 20.00 10.00 
C 20.50 10.00 21.55 10.15 22.00 10.00
C 23.28 9.58 22.48 9.40 22.00 9.00
C 21.78 8.82 20.33 8.07 20.00 8.00
C 19.77 8.34 19.75 9.75 20.00 10.00 Z"/>
</g>
<g fill="None" fill-opacity="0.0" stroke="#000000" stroke-opacity="0.67" stroke-width="0.3"><path d="
M 22.00 9.00 
C 22.48 9.40 23.28 9.58 22.00 10.00
C 24.94 10.83 23.31 9.31 22.00 9.00 Z"/>
</g>
<g fill="None" fill-opacity="0.0" stroke="#000000" stroke-opacity="0.22" stroke-width="0.3"><path d="
M 24.00 14.00 
C 21.17 10.56 7.31 10.16 6.00 15.00
C 11.27 13.67 19.00 15.03 24.00 14.00 Z"/>
</g>
<g fill="None" fill-opacity="0.0" stroke="#000000" stroke-opacity="0.43" stroke-width="0.3"><path d="
M 12.00 16.00 
C 11.32 15.32 8.25 16.29 9.32 17.66 C 10.39 19.03 13.00 17.00 12.00 16.00 Z"/>
</g>
<g fill="None" fill-opacity="0.0" stroke="#000000" stroke-opacity="0.44" stroke-width="0.3"><path d="
M 21.00 16.00 
C 20.32 15.32 17.25 16.29 18.32 17.66 C 19.39 19.03 22.00 17.00 21.00 16.00 Z"/>
</g>
<g fill="None" fill-opacity="0.0" stroke="#000000" stroke-opacity="0.25" stroke-width="0.3"><path d="
M 24.00 19.00 
C 18.13 19.69 11.36 21.24 6.00 18.00
C 7.16 24.20 15.52 20.64 19.00 22.00
C 17.00 24.72 13.08 23.16 11.00 25.00
C 16.78 27.66 21.02 24.17 24.00 19.00 Z"/>
</g>
<g fill="#000000" fill-opacity="0.04" stroke="None">
<path d="
M 0.00 30.00 
L 30.00 30.00
L 30.00 0.00
L 0.00 0.00
L 0.00 30.00
M 26.00 8.00 
C 26.43 14.90 24.08 21.69 27.00 28.00
C 23.61 28.84 24.79 26.16 24.00 24.00
C 17.39 30.15 9.48 28.00 4.00 21.00
C 0.56 5.83 15.28 -4.19 26.00 8.00 Z"/>
</g>
<g fill="#000000" fill-opacity="0.87" stroke="None">
<path d="
M 26.00 8.00 
C 15.28 -4.19 0.56 5.83 4.00 21.00
C 9.48 28.00 17.39 30.15 24.00 24.00
C 24.79 26.16 23.61 28.84 27.00 28.00
C 24.08 21.69 26.43 14.90 26.00 8.00
M 11.00 7.00 
C 10.09 10.31 16.30 7.21 20.00 8.00
C 20.33 8.07 21.78 8.82 22.00 9.00
C 23.31 9.31 24.94 10.83 22.00 10.00
C 21.55 10.15 20.50 10.00 20.00 10.00
C 15.11 10.00 10.65 10.15 6.00 11.00
C 7.55 9.45 7.83 6.83 10.00 6.00
C 10.82 2.81 17.77 5.41 20.00 5.00
C 19.32 9.38 13.64 5.22 11.00 7.00
M 24.00 14.00 
C 19.00 15.03 11.27 13.67 6.00 15.00
C 7.31 10.16 21.17 10.56 24.00 14.00
M 12.00 16.00 
C 13.00 17.00 10.39 19.03 9.32 17.66 C 8.25 16.29 11.32 15.32 12.00 16.00
M 21.00 16.00 
C 22.00 17.00 19.39 19.03 18.32 17.66 C 17.25 16.29 20.32 15.32 21.00 16.00
M 24.00 19.00 
C 21.02 24.17 16.78 27.66 11.00 25.00
C 13.08 23.16 17.00 24.72 19.00 22.00
C 15.52 20.64 7.16 24.20 6.00 18.00
C 11.36 21.24 18.13 19.69 24.00 19.00 Z"/>
</g>
<g fill="#000000" fill-opacity="0.41" stroke="None">
<path d="
M 10.00 6.00 
C 10.25 5.92 10.82 6.99 11.00 7.00
C 13.64 5.22 19.32 9.38 20.00 5.00
C 17.77 5.41 10.82 2.81 10.00 6.00 Z"/>
</g>
<g fill="#000000" fill-opacity="0.28" stroke="None">
<path d="
M 20.00 10.00 
C 19.75 9.75 19.77 8.34 20.00 8.00
C 16.30 7.21 10.09 10.31 11.00 7.00
C 10.82 6.99 10.25 5.92 10.00 6.00
C 7.83 6.83 7.55 9.45 6.00 11.00
C 10.65 10.15 15.11 10.00 20.00 10.00 Z"/>
</g>
<g fill="#000000" fill-opacity="0.09" stroke="None">
<path d="
M 20.00 10.00 
C 20.50 10.00 21.55 10.15 22.00 10.00
C 23.28 9.58 22.48 9.40 22.00 9.00
C 21.78 8.82 20.33 8.07 20.00 8.00
C 19.77 8.34 19.75 9.75 20.00 10.00 Z"/>
</g>
<g fill="#000000" fill-opacity="0.67" stroke="None">
<path d="
M 22.00 9.00 
C 22.48 9.40 23.28 9.58 22.00 10.00
C 24.94 10.83 23.31 9.31 22.00 9.00 Z"/>
</g>
<g fill="#000000" fill-opacity="0.22" stroke="None">
<path d="
M 24.00 14.00 
C 21.17 10.56 7.31 10.16 6.00 15.00
C 11.27 13.67 19.00 15.03 24.00 14.00 Z"/>
</g>
<g fill="#000000" fill-opacity="0.43" stroke="None">
<path d="
M 12.00 16.00 
C 11.32 15.32 8.25 16.29 9.32 17.66 C 10.39 19.03 13.00 17.00 12.00 16.00 Z"/>
</g>
<g fill="#000000" fill-opacity="0.44" stroke="None">
<path d="
M 21.00 16.00 
C 20.32 15.32 17.25 16.29 18.32 17.66 C 19.39 19.03 22.00 17.00 21.00 16.00 Z"/>
</g>
<g fill="#000000" fill-opacity="0.25" stroke="None">
<path d="
M 24.00 19.00 
C 18.13 19.69 11.36 21.24 6.00 18.00
C 7.16 24.20 15.52 20.64 19.00 22.00
C 17.00 24.72 13.08 23.16 11.00 25.00
C 16.78 27.66 21.02 24.17 24.00 19.00 Z"/>
</g>
</svg>