<svg xmlns="http://www.w3.org/2000/svg" xmlns:v="https://svgstorm.com"
viewBox = "0 0 30 30"
width="30"
height="30">
<g fill="None" fill-opacity="0.0" stroke="#000000" stroke-opacity="0.04" stroke-width="0.3"><path d="
M 0.00 30.00 
L 30.00 30.00
L 30.00 0.00
L 21.00 0.00
C 20.51 3.71 19.21 5.96 15.00 7.00
C 14.62 3.37 17.09 2.91 19.00 0.00
L 0.00 0.00
L 0.00 30.00
M 26.00 9.00 
C 23.79 10.68 24.22 12.53 22.00 13.00
C 27.83 21.69 24.79 27.60 14.97 27.02 C 5.15 26.44 5.67 23.12 3.00 14.00
C 4.38 11.63 7.06 10.42 8.00 7.00
C 13.81 9.74 19.91 5.62 26.00 9.00 Z"/>
</g>
<g fill="None" fill-opacity="0.0" stroke="#000000" stroke-opacity="0.75" stroke-width="0.3"><path d="
M 21.00 0.00 
L 19.00 0.00
C 17.09 2.91 14.62 3.37 15.00 7.00
C 19.21 5.96 20.51 3.71 21.00 0.00 Z"/>
</g>
<g fill="None" fill-opacity="0.0" stroke="#000000" stroke-opacity="0.96" stroke-width="0.3"><path d="
M 26.00 9.00 
C 19.91 5.62 13.81 9.74 8.00 7.00
C 7.06 10.42 4.38 11.63 3.00 14.00
C 5.67 23.12 5.15 26.44 14.97 27.02 C 24.79 27.60 27.83 21.69 22.00 13.00
C 24.22 12.53 23.79 10.68 26.00 9.00 Z"/>
</g>
<g fill="#000000" fill-opacity="0.04" stroke="None">
<path d="
M 0.00 30.00 
L 30.00 30.00
L 30.00 0.00
L 21.00 0.00
C 20.51 3.71 19.21 5.96 15.00 7.00
C 14.62 3.37 17.09 2.91 19.00 0.00
L 0.00 0.00
L 0.00 30.00
M 26.00 9.00 
C 23.79 10.68 24.22 12.53 22.00 13.00
C 27.83 21.69 24.79 27.60 14.97 27.02 C 5.15 26.44 5.67 23.12 3.00 14.00
C 4.38 11.63 7.06 10.42 8.00 7.00
C 13.81 9.74 19.91 5.62 26.00 9.00 Z"/>
</g>
<g fill="#000000" fill-opacity="0.75" stroke="None">
<path d="
M 21.00 0.00 
L 19.00 0.00
C 17.09 2.91 14.62 3.37 15.00 7.00
C 19.21 5.96 20.51 3.71 21.00 0.00 Z"/>
</g>
<g fill="#000000" fill-opacity="0.96" stroke="None">
<path d="
M 26.00 9.00 
C 19.91 5.62 13.81 9.74 8.00 7.00
C 7.06 10.42 4.38 11.63 3.00 14.00
C 5.67 23.12 5.15 26.44 14.97 27.02 C 24.79 27.60 27.83 21.69 22.00 13.00
C 24.22 12.53 23.79 10.68 26.00 9.00 Z"/>
</g>
</svg>