<svg xmlns="http://www.w3.org/2000/svg" xmlns:v="https://svgstorm.com"
viewBox = "0 0 30 30"
width="30"
height="30">
<g fill="None" fill-opacity="0.0" stroke="#000000" stroke-opacity="0.00" stroke-width="0.3"><path d="
M 0.00 30.00 
L 30.00 30.00
L 30.00 0.00
L 0.00 0.00
L 0.00 30.00
M 14.00 5.00 
C 14.00 12.33 14.00 19.67 14.00 27.00
C 10.89 23.73 6.06 25.40 2.00 25.00
C 2.00 18.33 2.00 11.67 2.00 5.00
C 6.08 4.42 10.53 5.89 14.00 5.00
M 28.00 5.00 
C 28.00 11.67 28.00 18.33 28.00 25.00
C 23.90 25.33 19.14 23.81 16.00 27.00
C 16.00 19.67 16.00 12.33 16.00 5.00
C 20.08 4.42 24.53 5.89 28.00 5.00 Z"/>
</g>
<g fill="None" fill-opacity="0.0" stroke="#000000" stroke-opacity="0.98" stroke-width="0.3"><path d="
M 14.00 5.00 
C 10.53 5.89 6.08 4.42 2.00 5.00
C 2.00 11.67 2.00 18.33 2.00 25.00
C 6.06 25.40 10.89 23.73 14.00 27.00
C 14.00 19.67 14.00 12.33 14.00 5.00 Z"/>
</g>
<g fill="None" fill-opacity="0.0" stroke="#000000" stroke-opacity="0.98" stroke-width="0.3"><path d="
M 28.00 5.00 
C 24.53 5.89 20.08 4.42 16.00 5.00
C 16.00 12.33 16.00 19.67 16.00 27.00
C 19.14 23.81 23.90 25.33 28.00 25.00
C 28.00 18.33 28.00 11.67 28.00 5.00 Z"/>
</g>
<g fill="#000000" fill-opacity="0.00" stroke="None">
<path d="
M 0.00 30.00 
L 30.00 30.00
L 30.00 0.00
L 0.00 0.00
L 0.00 30.00
M 14.00 5.00 
C 14.00 12.33 14.00 19.67 14.00 27.00
C 10.89 23.73 6.06 25.40 2.00 25.00
C 2.00 18.33 2.00 11.67 2.00 5.00
C 6.08 4.42 10.53 5.89 14.00 5.00
M 28.00 5.00 
C 28.00 11.67 28.00 18.33 28.00 25.00
C 23.90 25.33 19.14 23.81 16.00 27.00
C 16.00 19.67 16.00 12.33 16.00 5.00
C 20.08 4.42 24.53 5.89 28.00 5.00 Z"/>
</g>
<g fill="#000000" fill-opacity="0.98" stroke="None">
<path d="
M 14.00 5.00 
C 10.53 5.89 6.08 4.42 2.00 5.00
C 2.00 11.67 2.00 18.33 2.00 25.00
C 6.06 25.40 10.89 23.73 14.00 27.00
C 14.00 19.67 14.00 12.33 14.00 5.00 Z"/>
</g>
<g fill="#000000" fill-opacity="0.98" stroke="None">
<path d="
M 28.00 5.00 
C 24.53 5.89 20.08 4.42 16.00 5.00
C 16.00 12.33 16.00 19.67 16.00 27.00
C 19.14 23.81 23.90 25.33 28.00 25.00
C 28.00 18.33 28.00 11.67 28.00 5.00 Z"/>
</g>
</svg>