<svg xmlns="http://www.w3.org/2000/svg"  viewBox="0 0 128 128" width="64px" height="64px"><path fill="#fff" d="M103.6,41.3C101,21.7,84.5,6,64.1,6C43.4,6,26.3,21.7,24.2,41.9C13.8,45,7.8,56,10.8,66.5c2.7,9.3,11.6,15.2,20.9,14.4c3.3,8.3,6.9,15.4,9.3,19.9c1.8,3.2,5.1,5.2,8.8,5.2H64h14.3c3.6,0,6.9-1.9,8.7-5.1c2.5-4.5,6.2-11.7,9.5-20.2c10.8,1.9,21.2-5.3,23.1-16.2C121.6,53.7,114.4,43.3,103.6,41.3z"/><path fill="#fff" d="M52,82l-2.8,24.3c-0.2,1.9-0.2,3.8,0.3,5.7c1.7,6.3,7.6,11,14.5,11s12.7-4.7,14.5-11c0.5-1.8,0.6-3.8,0.3-5.7L76,82"/><path fill="#444b54" d="M64,126c-8.1,0-15.2-5.4-17.4-13.2c-0.6-2.1-0.7-4.4-0.4-6.8L48,90.8c0.2-1.6,1.7-2.8,3.3-2.6c1.6,0.2,2.8,1.7,2.6,3.3l-1.8,15.2c-0.2,1.7-0.1,3.2,0.3,4.5c1.4,5.2,6.2,8.8,11.6,8.8s10.1-3.6,11.6-8.8c0.4-1.3,0.4-2.8,0.3-4.5l-1.8-15.2c-0.2-1.6,1-3.1,2.6-3.3c1.6-0.2,3.1,1,3.3,2.6l1.8,15.2c0.3,2.5,0.1,4.7-0.4,6.8C79.2,120.6,72.1,126,64,126z"/><path fill="#ee5055" d="M76 85H52c-1.7 0-3-1.3-3-3s1.3-3 3-3h24c1.7 0 3 1.3 3 3S77.7 85 76 85zM30 72c-6.1 0-11-4.9-11-11s4.9-11 11-11 11 4.9 11 11S36.1 72 30 72zM30 56c-2.8 0-5 2.2-5 5s2.2 5 5 5 5-2.2 5-5S32.8 56 30 56z"/><path fill="#444b54" d="M119.4,47.9c-3.2-4.5-7.7-7.7-13-9.1C102.9,18.5,85.2,3,64,3C42.5,3,24.6,18.9,21.5,39.6C10.6,43.9,4.6,55.9,7.9,67.3c2.9,10,11.9,16.5,21.8,16.6c2.9,7.2,6.1,13.4,8.6,18c0.8,1.5,2.6,2,4.1,1.2c1.5-0.8,2-2.6,1.2-4.1c-1.9-3.5-4.8-9.1-7.6-15.9c0.2,0,0.3-0.1,0.5-0.1c0.1,0,0.2-0.1,0.3-0.1l5.5-2.2c1.5-0.6,2.3-2.4,1.7-3.9s-2.4-2.3-3.9-1.7l-5.3,2.2c-9,2.5-18.3-2.7-20.9-11.7c-2.6-9,2.6-18.4,11.6-21c1.6-0.5,2.5-2.1,2.1-3.7c0,0,0,0,0,0C29.8,22.9,45.3,9,64,9c18.7,0,34.6,13.9,37,32c0,0,0,0,0.1,0c-0.2,1.5,0.9,3,2.4,3.3c4.5,0.8,8.4,3.3,11,7c2.6,3.7,3.6,8.2,2.8,12.7c-0.8,4.5-3.3,8.4-7,11c-3.7,2.6-8.2,3.6-12.7,2.8L88,76c-1.6-0.3-3.2,0.8-3.5,2.4c-0.3,1.6,0.8,3.2,2.4,3.5l5.4,1c-2.9,7-5.9,12.8-7.9,16.3c-0.8,1.4-0.3,3.3,1.2,4.1c0.5,0.3,1,0.4,1.5,0.4c1.1,0,2.1-0.6,2.6-1.5c2.6-4.6,5.8-10.9,8.8-18.2c0.7,0.1,1.4,0.1,2,0.1c4.7,0,9.2-1.4,13.1-4.1c5-3.5,8.4-8.8,9.5-14.8S122.9,52.9,119.4,47.9z"/><path fill="#ee5055" d="M100,74c-7.2,0-13-5.8-13-13s5.8-13,13-13s13,5.8,13,13S107.2,74,100,74z M100,54c-3.9,0-7,3.1-7,7s3.1,7,7,7s7-3.1,7-7S103.9,54,100,54z"/><path fill="#444b54" d="M51.9 53c-1.2 0-2.3-.2-3.3-.7l-9.8-4.5c-2.9-1.3-4.7-4.2-4.7-7.4 0-4.5 3.6-8.1 8.1-8.1h5.4C54.4 32.4 60 38 60 44.9c0 2.2-.9 4.3-2.4 5.8C56 52.2 54 53 51.9 53L51.9 53zM85.9 32.4h-5.4C73.6 32.4 68 38 68 44.9c0 0 0 0 0 .1 0 0 0 0 0 0v24c0 1.7 1.3 3 3 3s3-1.3 3-3V52.7c.7.2 1.4.3 2.1.3 1.2 0 2.3-.2 3.3-.7l9.8-4.5c2.9-1.3 4.7-4.2 4.7-7.4C94 36 90.4 32.4 85.9 32.4z"/><path fill="#ee5055" d="M77 41A3 3 0 1 0 77 47 3 3 0 1 0 77 41zM51 41A3 3 0 1 0 51 47 3 3 0 1 0 51 41z"/></svg>