<svg xmlns="http://www.w3.org/2000/svg" xmlns:v="https://svgstorm.com"
viewBox = "0 0 30 30"
width="30"
height="30">
<g fill="None" fill-opacity="0.0" stroke="#000000" stroke-opacity="0.07" stroke-width="0.3"><path d="
M 0.00 30.00 
L 30.00 30.00
L 30.00 0.00
L 0.00 0.00
L 0.00 30.00
M 10.00 24.00 
C 9.21 22.96 8.43 16.06 13.00 16.00
C 12.21 18.82 11.55 22.77 16.01 21.99 C 20.46 21.21 14.25 15.95 19.00 16.00
C 17.91 19.60 22.59 17.51 20.00 21.00
C 18.16 23.09 24.36 21.05 24.00 19.00
C 23.80 16.77 20.87 17.78 22.00 14.00
C 17.54 14.79 12.36 15.20 8.00 14.00
C 9.20 17.88 6.23 16.51 6.00 19.00
C 0.02 13.48 6.02 5.28 10.92 2.87 C 15.82 0.46 26.16 4.73 26.71 10.30 C 27.26 15.87 26.04 22.34 20.30 26.30 C 14.55 30.25 5.71 24.56 4.00 20.00
C 7.88 18.76 7.78 22.40 10.00 24.00 Z"/>
</g>
<g fill="None" fill-opacity="0.0" stroke="#000000" stroke-opacity="0.89" stroke-width="0.3"><path d="
M 20.00 21.00 
C 19.88 21.94 18.22 23.67 20.00 25.00
C 16.56 25.44 12.73 26.82 10.00 24.00
C 7.78 22.40 7.88 18.76 4.00 20.00
C 5.71 24.56 14.55 30.25 20.30 26.30 C 26.04 22.34 27.26 15.87 26.71 10.30 C 26.16 4.73 15.82 0.46 10.92 2.87 C 6.02 5.28 0.02 13.48 6.00 19.00
C 6.23 16.51 9.20 17.88 8.00 14.00
C 12.36 15.20 17.54 14.79 22.00 14.00
C 20.87 17.78 23.80 16.77 24.00 19.00
C 24.36 21.05 18.16 23.09 20.00 21.00
M 19.00 7.00 
C 17.34 8.37 14.35 6.38 12.00 8.00
C 11.34 2.45 16.90 5.66 19.00 7.00
M 20.00 12.00 
C 17.72 13.54 12.21 13.72 10.00 12.00
C 12.91 10.42 17.10 10.51 20.00 12.00 Z"/>
</g>
<g fill="None" fill-opacity="0.0" stroke="#000000" stroke-opacity="0.52" stroke-width="0.3"><path d="
M 19.00 7.00 
C 16.90 5.66 11.34 2.45 12.00 8.00
C 14.35 6.38 17.34 8.37 19.00 7.00 Z"/>
</g>
<g fill="None" fill-opacity="0.0" stroke="#000000" stroke-opacity="0.22" stroke-width="0.3"><path d="
M 20.00 12.00 
C 17.10 10.51 12.91 10.42 10.00 12.00
C 12.21 13.72 17.72 13.54 20.00 12.00 Z"/>
</g>
<g fill="None" fill-opacity="0.0" stroke="#000000" stroke-opacity="0.64" stroke-width="0.3"><path d="
M 10.00 24.00 
C 12.73 26.82 16.56 25.44 20.00 25.00
C 18.22 23.67 19.88 21.94 20.00 21.00
C 22.59 17.51 17.91 19.60 19.00 16.00
C 14.25 15.95 20.46 21.21 16.01 21.99 C 11.55 22.77 12.21 18.82 13.00 16.00
C 8.43 16.06 9.21 22.96 10.00 24.00 Z"/>
</g>
<g fill="#000000" fill-opacity="0.07" stroke="None">
<path d="
M 0.00 30.00 
L 30.00 30.00
L 30.00 0.00
L 0.00 0.00
L 0.00 30.00
M 10.00 24.00 
C 9.21 22.96 8.43 16.06 13.00 16.00
C 12.21 18.82 11.55 22.77 16.01 21.99 C 20.46 21.21 14.25 15.95 19.00 16.00
C 17.91 19.60 22.59 17.51 20.00 21.00
C 18.16 23.09 24.36 21.05 24.00 19.00
C 23.80 16.77 20.87 17.78 22.00 14.00
C 17.54 14.79 12.36 15.20 8.00 14.00
C 9.20 17.88 6.23 16.51 6.00 19.00
C 0.02 13.48 6.02 5.28 10.92 2.87 C 15.82 0.46 26.16 4.73 26.71 10.30 C 27.26 15.87 26.04 22.34 20.30 26.30 C 14.55 30.25 5.71 24.56 4.00 20.00
C 7.88 18.76 7.78 22.40 10.00 24.00 Z"/>
</g>
<g fill="#000000" fill-opacity="0.89" stroke="None">
<path d="
M 20.00 21.00 
C 19.88 21.94 18.22 23.67 20.00 25.00
C 16.56 25.44 12.73 26.82 10.00 24.00
C 7.78 22.40 7.88 18.76 4.00 20.00
C 5.71 24.56 14.55 30.25 20.30 26.30 C 26.04 22.34 27.26 15.87 26.71 10.30 C 26.16 4.73 15.82 0.46 10.92 2.87 C 6.02 5.28 0.02 13.48 6.00 19.00
C 6.23 16.51 9.20 17.88 8.00 14.00
C 12.36 15.20 17.54 14.79 22.00 14.00
C 20.87 17.78 23.80 16.77 24.00 19.00
C 24.36 21.05 18.16 23.09 20.00 21.00
M 19.00 7.00 
C 17.34 8.37 14.35 6.38 12.00 8.00
C 11.34 2.45 16.90 5.66 19.00 7.00
M 20.00 12.00 
C 17.72 13.54 12.21 13.72 10.00 12.00
C 12.91 10.42 17.10 10.51 20.00 12.00 Z"/>
</g>
<g fill="#000000" fill-opacity="0.52" stroke="None">
<path d="
M 19.00 7.00 
C 16.90 5.66 11.34 2.45 12.00 8.00
C 14.35 6.38 17.34 8.37 19.00 7.00 Z"/>
</g>
<g fill="#000000" fill-opacity="0.22" stroke="None">
<path d="
M 20.00 12.00 
C 17.10 10.51 12.91 10.42 10.00 12.00
C 12.21 13.72 17.72 13.54 20.00 12.00 Z"/>
</g>
<g fill="#000000" fill-opacity="0.64" stroke="None">
<path d="
M 10.00 24.00 
C 12.73 26.82 16.56 25.44 20.00 25.00
C 18.22 23.67 19.88 21.94 20.00 21.00
C 22.59 17.51 17.91 19.60 19.00 16.00
C 14.25 15.95 20.46 21.21 16.01 21.99 C 11.55 22.77 12.21 18.82 13.00 16.00
C 8.43 16.06 9.21 22.96 10.00 24.00 Z"/>
</g>
</svg>