<svg xmlns="http://www.w3.org/2000/svg" xmlns:v="https://svgstorm.com"
viewBox = "0 0 30 30"
width="30"
height="30">
<g fill="None" fill-opacity="0.0" stroke="#000000" stroke-opacity="0.02" stroke-width="0.3"><path d="
M 0.00 30.00 
L 30.00 30.00
L 30.00 0.00
L 0.00 0.00
L 0.00 30.00
M 12.00 14.00 
C 14.36 9.99 17.14 13.68 20.00 14.00
C 19.16 8.94 26.08 11.72 29.00 11.00
C 29.11 13.59 23.90 15.08 26.00 18.00
C 21.47 19.39 16.85 16.94 16.00 23.00
C 12.34 19.14 10.01 18.29 4.00 18.00
C 6.17 15.00 1.40 13.86 1.00 11.00
C 5.00 10.79 9.57 10.56 12.00 14.00 Z"/>
</g>
<g fill="None" fill-opacity="0.0" stroke="#000000" stroke-opacity="0.89" stroke-width="0.3"><path d="
M 12.00 14.00 
C 9.57 10.56 5.00 10.79 1.00 11.00
C 1.40 13.86 6.17 15.00 4.00 18.00
C 10.01 18.29 12.34 19.14 16.00 23.00
C 16.85 16.94 21.47 19.39 26.00 18.00
C 23.90 15.08 29.11 13.59 29.00 11.00
C 26.08 11.72 19.16 8.94 20.00 14.00
C 17.14 13.68 14.36 9.99 12.00 14.00 Z"/>
</g>
<g fill="#000000" fill-opacity="0.02" stroke="None">
<path d="
M 0.00 30.00 
L 30.00 30.00
L 30.00 0.00
L 0.00 0.00
L 0.00 30.00
M 12.00 14.00 
C 14.36 9.99 17.14 13.68 20.00 14.00
C 19.16 8.94 26.08 11.72 29.00 11.00
C 29.11 13.59 23.90 15.08 26.00 18.00
C 21.47 19.39 16.85 16.94 16.00 23.00
C 12.34 19.14 10.01 18.29 4.00 18.00
C 6.17 15.00 1.40 13.86 1.00 11.00
C 5.00 10.79 9.57 10.56 12.00 14.00 Z"/>
</g>
<g fill="#000000" fill-opacity="0.89" stroke="None">
<path d="
M 12.00 14.00 
C 9.57 10.56 5.00 10.79 1.00 11.00
C 1.40 13.86 6.17 15.00 4.00 18.00
C 10.01 18.29 12.34 19.14 16.00 23.00
C 16.85 16.94 21.47 19.39 26.00 18.00
C 23.90 15.08 29.11 13.59 29.00 11.00
C 26.08 11.72 19.16 8.94 20.00 14.00
C 17.14 13.68 14.36 9.99 12.00 14.00 Z"/>
</g>
</svg>