<svg xmlns="http://www.w3.org/2000/svg" xmlns:v="https://svgstorm.com"
viewBox = "0 0 64 64"
width="64"
height="64">
<g fill="None" fill-opacity="0.0" stroke="#000000" stroke-opacity="0.00" stroke-width="0.3"><path d="
M 0.00 64.00 
L 64.00 64.00
L 64.00 0.00
L 0.00 0.00
L 0.00 64.00
M 43.00 52.00 
C 42.51 52.06 42.00 52.00 42.00 52.00
C 41.74 52.12 41.04 52.79 41.00 53.00
C 41.89 66.31 22.11 66.33 23.00 53.00
C 22.96 52.79 22.26 52.12 22.00 52.00
C 21.75 52.25 21.00 52.00 21.00 52.00
C 17.00 51.51 15.66 45.32 15.00 42.00
C 7.42 44.12 -1.28 30.90 4.31 25.31 C 9.89 19.72 11.41 13.35 16.25 7.25 C 21.09 1.16 32.17 -0.41 39.01 1.99 C 45.85 4.40 52.81 11.66 53.00 19.00
C 60.35 19.78 66.14 32.71 59.75 37.75 C 53.35 42.78 47.11 45.28 43.00 52.00 Z"/>
</g>
<g fill="None" fill-opacity="0.0" stroke="#474E57" stroke-opacity="0.85" stroke-width="0.3"><path d="
M 21.00 52.00 
C 20.97 51.98 21.98 50.97 22.00 51.00
C 20.61 45.06 16.10 42.01 22.00 38.00
C 9.84 45.68 -0.22 24.98 14.00 22.00
C 13.33 -1.06 50.54 -0.31 51.00 22.00
C 66.36 24.82 55.35 45.64 43.00 38.00
C 47.05 41.92 44.04 45.55 42.00 51.00
C 42.02 50.97 43.03 51.98 43.00 52.00
C 47.11 45.28 53.35 42.78 59.75 37.75 C 66.14 32.71 60.35 19.78 53.00 19.00
C 52.81 11.66 45.85 4.40 39.01 1.99 C 32.17 -0.41 21.09 1.16 16.25 7.25 C 11.41 13.35 9.89 19.72 4.31 25.31 C -1.28 30.90 7.42 44.12 15.00 42.00
C 15.66 45.32 17.00 51.51 21.00 52.00 Z"/>
</g>
<g fill="None" fill-opacity="0.0" stroke="#F6F5F6" stroke-opacity="1.00" stroke-width="0.3"><path d="
M 22.00 51.00 
C 22.11 51.47 22.00 52.00 22.00 52.00
C 22.25 52.25 23.00 52.00 23.00 52.00
C 23.93 49.39 23.18 45.40 26.00 44.00
C 27.62 48.71 22.94 59.95 32.01 59.99 C 41.08 60.03 36.50 48.81 38.00 44.00
C 41.13 45.36 39.59 49.49 41.00 52.00
C 41.25 51.75 42.00 52.00 42.00 52.00
C 41.75 51.75 42.00 51.00 42.00 51.00
C 44.04 45.55 47.05 41.92 43.00 38.00
C 55.35 45.64 66.36 24.82 51.00 22.00
C 50.54 -0.31 13.33 -1.06 14.00 22.00
C -0.22 24.98 9.84 45.68 22.00 38.00
C 16.10 42.01 20.61 45.06 22.00 51.00
M 25.00 16.00 
C 32.09 17.80 30.73 27.85 22.78 25.22 C 14.83 22.59 17.03 13.98 25.00 16.00
M 37.00 26.00 
C 36.33 29.20 38.71 34.31 35.00 36.00
C 34.50 29.62 30.18 17.96 40.22 16.22 C 50.26 14.49 46.08 28.37 37.00 26.00
M 53.00 24.00 
C 59.70 26.51 55.76 40.07 48.00 37.00 C 40.24 33.93 44.50 20.82 53.00 24.00
M 17.00 25.00 
C 22.76 26.66 20.98 37.57 14.00 36.00 C 7.01 34.43 9.48 22.83 17.00 25.00
M 38.00 40.00 
C 39.07 41.06 39.02 41.00 38.00 42.00
C 36.15 43.83 27.80 43.78 26.00 42.00
C 24.93 40.94 24.98 41.00 26.00 40.00
C 27.85 38.17 36.20 38.22 38.00 40.00 Z"/>
</g>
<g fill="None" fill-opacity="0.0" stroke="#4A5059" stroke-opacity="1.00" stroke-width="0.3"><path d="
M 25.00 16.00 
C 17.03 13.98 14.83 22.59 22.78 25.22 C 30.73 27.85 32.09 17.80 25.00 16.00
M 26.00 20.00 
C 29.46 25.29 20.65 22.81 26.00 20.00 Z"/>
</g>
<g fill="None" fill-opacity="0.0" stroke="#494F58" stroke-opacity="1.00" stroke-width="0.3"><path d="
M 37.00 26.00 
C 46.08 28.37 50.26 14.49 40.22 16.22 C 30.18 17.96 34.50 29.62 35.00 36.00
C 38.71 34.31 36.33 29.20 37.00 26.00
M 39.00 20.00 
C 42.46 25.29 33.65 22.81 39.00 20.00 Z"/>
</g>
<g fill="None" fill-opacity="0.0" stroke="#C55055" stroke-opacity="1.00" stroke-width="0.3"><path d="
M 26.00 20.00 
C 20.65 22.81 29.46 25.29 26.00 20.00 Z"/>
</g>
<g fill="None" fill-opacity="0.0" stroke="#C55055" stroke-opacity="1.00" stroke-width="0.3"><path d="
M 39.00 20.00 
C 33.65 22.81 42.46 25.29 39.00 20.00 Z"/>
</g>
<g fill="None" fill-opacity="0.0" stroke="#F06467" stroke-opacity="1.00" stroke-width="0.3"><path d="
M 53.00 24.00 
C 44.50 20.82 40.24 33.93 48.00 37.00 C 55.76 40.07 59.70 26.51 53.00 24.00
M 52.00 27.00 
C 55.21 28.95 52.25 36.03 48.33 33.67 C 44.40 31.30 48.75 25.03 52.00 27.00 Z"/>
</g>
<g fill="None" fill-opacity="0.0" stroke="#F1696B" stroke-opacity="1.00" stroke-width="0.3"><path d="
M 17.00 25.00 
C 9.48 22.83 7.01 34.43 14.00 36.00 C 20.98 37.57 22.76 26.66 17.00 25.00
M 16.00 28.00 
C 18.03 28.92 16.88 33.74 14.30 32.64 C 11.72 31.54 13.61 26.91 16.00 28.00 Z"/>
</g>
<g fill="None" fill-opacity="0.0" stroke="#FEF4F5" stroke-opacity="1.00" stroke-width="0.3"><path d="
M 52.00 27.00 
C 48.75 25.03 44.40 31.30 48.33 33.67 C 52.25 36.03 55.21 28.95 52.00 27.00 Z"/>
</g>
<g fill="None" fill-opacity="0.0" stroke="#FEFAFA" stroke-opacity="1.00" stroke-width="0.3"><path d="
M 16.00 28.00 
C 13.61 26.91 11.72 31.54 14.30 32.64 C 16.88 33.74 18.03 28.92 16.00 28.00 Z"/>
</g>
<g fill="None" fill-opacity="0.0" stroke="#F6A7AA" stroke-opacity="1.00" stroke-width="0.3"><path d="
M 26.00 40.00 
C 27.28 39.29 36.72 39.29 38.00 40.00
C 36.20 38.22 27.85 38.17 26.00 40.00 Z"/>
</g>
<g fill="None" fill-opacity="0.0" stroke="#ED5055" stroke-opacity="1.00" stroke-width="0.3"><path d="
M 26.00 42.00 
C 27.28 42.71 36.72 42.71 38.00 42.00
C 39.02 41.00 39.07 41.06 38.00 40.00
C 36.72 39.29 27.28 39.29 26.00 40.00
C 24.98 41.00 24.93 40.94 26.00 42.00 Z"/>
</g>
<g fill="None" fill-opacity="0.0" stroke="#F6A7AA" stroke-opacity="1.00" stroke-width="0.3"><path d="
M 38.00 42.00 
C 36.72 42.71 27.28 42.71 26.00 42.00
C 27.80 43.78 36.15 43.83 38.00 42.00 Z"/>
</g>
<g fill="None" fill-opacity="0.0" stroke="#484F58" stroke-opacity="0.90" stroke-width="0.3"><path d="
M 23.00 52.00 
C 22.84 52.44 23.00 53.00 23.00 53.00
C 22.11 66.33 41.89 66.31 41.00 53.00
C 40.97 52.50 41.00 52.00 41.00 52.00
C 39.59 49.49 41.13 45.36 38.00 44.00
C 36.50 48.81 41.08 60.03 32.01 59.99 C 22.94 59.95 27.62 48.71 26.00 44.00
C 23.18 45.40 23.93 49.39 23.00 52.00 Z"/>
</g>
<g fill="None" fill-opacity="0.0" stroke="#9FA2A7" stroke-opacity="0.62" stroke-width="0.3"><path d="
M 21.00 52.00 
C 21.00 52.00 21.75 52.25 22.00 52.00
C 22.00 52.00 22.11 51.47 22.00 51.00
C 21.98 50.97 20.97 51.98 21.00 52.00 Z"/>
</g>
<g fill="None" fill-opacity="0.0" stroke="#B8BBBE" stroke-opacity="0.67" stroke-width="0.3"><path d="
M 42.00 52.00 
C 42.00 52.00 42.51 52.06 43.00 52.00
C 43.03 51.98 42.02 50.97 42.00 51.00
C 42.00 51.00 41.75 51.75 42.00 52.00 Z"/>
</g>
<g fill="None" fill-opacity="0.0" stroke="#FFFFFF" stroke-opacity="0.38" stroke-width="0.3"><path d="
M 23.00 53.00 
C 23.00 53.00 22.84 52.44 23.00 52.00
C 23.00 52.00 22.25 52.25 22.00 52.00
C 22.26 52.12 22.96 52.79 23.00 53.00 Z"/>
</g>
<g fill="None" fill-opacity="0.0" stroke="#FFFFFF" stroke-opacity="0.44" stroke-width="0.3"><path d="
M 41.00 53.00 
C 41.04 52.79 41.74 52.12 42.00 52.00
C 42.00 52.00 41.25 51.75 41.00 52.00
C 41.00 52.00 40.97 52.50 41.00 53.00 Z"/>
</g>
<g fill="#000000" fill-opacity="0.00" stroke="None">
<path d="
M 0.00 64.00 
L 64.00 64.00
L 64.00 0.00
L 0.00 0.00
L 0.00 64.00
M 43.00 52.00 
C 42.51 52.06 42.00 52.00 42.00 52.00
C 41.74 52.12 41.04 52.79 41.00 53.00
C 41.89 66.31 22.11 66.33 23.00 53.00
C 22.96 52.79 22.26 52.12 22.00 52.00
C 21.75 52.25 21.00 52.00 21.00 52.00
C 17.00 51.51 15.66 45.32 15.00 42.00
C 7.42 44.12 -1.28 30.90 4.31 25.31 C 9.89 19.72 11.41 13.35 16.25 7.25 C 21.09 1.16 32.17 -0.41 39.01 1.99 C 45.85 4.40 52.81 11.66 53.00 19.00
C 60.35 19.78 66.14 32.71 59.75 37.75 C 53.35 42.78 47.11 45.28 43.00 52.00 Z"/>
</g>
<g fill="#474E57" fill-opacity="0.85" stroke="None">
<path d="
M 21.00 52.00 
C 20.97 51.98 21.98 50.97 22.00 51.00
C 20.61 45.06 16.10 42.01 22.00 38.00
C 9.84 45.68 -0.22 24.98 14.00 22.00
C 13.33 -1.06 50.54 -0.31 51.00 22.00
C 66.36 24.82 55.35 45.64 43.00 38.00
C 47.05 41.92 44.04 45.55 42.00 51.00
C 42.02 50.97 43.03 51.98 43.00 52.00
C 47.11 45.28 53.35 42.78 59.75 37.75 C 66.14 32.71 60.35 19.78 53.00 19.00
C 52.81 11.66 45.85 4.40 39.01 1.99 C 32.17 -0.41 21.09 1.16 16.25 7.25 C 11.41 13.35 9.89 19.72 4.31 25.31 C -1.28 30.90 7.42 44.12 15.00 42.00
C 15.66 45.32 17.00 51.51 21.00 52.00 Z"/>
</g>
<g fill="#F6F5F6" fill-opacity="1.00" stroke="None">
<path d="
M 22.00 51.00 
C 22.11 51.47 22.00 52.00 22.00 52.00
C 22.25 52.25 23.00 52.00 23.00 52.00
C 23.93 49.39 23.18 45.40 26.00 44.00
C 27.62 48.71 22.94 59.95 32.01 59.99 C 41.08 60.03 36.50 48.81 38.00 44.00
C 41.13 45.36 39.59 49.49 41.00 52.00
C 41.25 51.75 42.00 52.00 42.00 52.00
C 41.75 51.75 42.00 51.00 42.00 51.00
C 44.04 45.55 47.05 41.92 43.00 38.00
C 55.35 45.64 66.36 24.82 51.00 22.00
C 50.54 -0.31 13.33 -1.06 14.00 22.00
C -0.22 24.98 9.84 45.68 22.00 38.00
C 16.10 42.01 20.61 45.06 22.00 51.00
M 25.00 16.00 
C 32.09 17.80 30.73 27.85 22.78 25.22 C 14.83 22.59 17.03 13.98 25.00 16.00
M 37.00 26.00 
C 36.33 29.20 38.71 34.31 35.00 36.00
C 34.50 29.62 30.18 17.96 40.22 16.22 C 50.26 14.49 46.08 28.37 37.00 26.00
M 53.00 24.00 
C 59.70 26.51 55.76 40.07 48.00 37.00 C 40.24 33.93 44.50 20.82 53.00 24.00
M 17.00 25.00 
C 22.76 26.66 20.98 37.57 14.00 36.00 C 7.01 34.43 9.48 22.83 17.00 25.00
M 38.00 40.00 
C 39.07 41.06 39.02 41.00 38.00 42.00
C 36.15 43.83 27.80 43.78 26.00 42.00
C 24.93 40.94 24.98 41.00 26.00 40.00
C 27.85 38.17 36.20 38.22 38.00 40.00 Z"/>
</g>
<g fill="#4A5059" fill-opacity="1.00" stroke="None">
<path d="
M 25.00 16.00 
C 17.03 13.98 14.83 22.59 22.78 25.22 C 30.73 27.85 32.09 17.80 25.00 16.00
M 26.00 20.00 
C 29.46 25.29 20.65 22.81 26.00 20.00 Z"/>
</g>
<g fill="#494F58" fill-opacity="1.00" stroke="None">
<path d="
M 37.00 26.00 
C 46.08 28.37 50.26 14.49 40.22 16.22 C 30.18 17.96 34.50 29.62 35.00 36.00
C 38.71 34.31 36.33 29.20 37.00 26.00
M 39.00 20.00 
C 42.46 25.29 33.65 22.81 39.00 20.00 Z"/>
</g>
<g fill="#C55055" fill-opacity="1.00" stroke="None">
<path d="
M 26.00 20.00 
C 20.65 22.81 29.46 25.29 26.00 20.00 Z"/>
</g>
<g fill="#C55055" fill-opacity="1.00" stroke="None">
<path d="
M 39.00 20.00 
C 33.65 22.81 42.46 25.29 39.00 20.00 Z"/>
</g>
<g fill="#F06467" fill-opacity="1.00" stroke="None">
<path d="
M 53.00 24.00 
C 44.50 20.82 40.24 33.93 48.00 37.00 C 55.76 40.07 59.70 26.51 53.00 24.00
M 52.00 27.00 
C 55.21 28.95 52.25 36.03 48.33 33.67 C 44.40 31.30 48.75 25.03 52.00 27.00 Z"/>
</g>
<g fill="#F1696B" fill-opacity="1.00" stroke="None">
<path d="
M 17.00 25.00 
C 9.48 22.83 7.01 34.43 14.00 36.00 C 20.98 37.57 22.76 26.66 17.00 25.00
M 16.00 28.00 
C 18.03 28.92 16.88 33.74 14.30 32.64 C 11.72 31.54 13.61 26.91 16.00 28.00 Z"/>
</g>
<g fill="#FEF4F5" fill-opacity="1.00" stroke="None">
<path d="
M 52.00 27.00 
C 48.75 25.03 44.40 31.30 48.33 33.67 C 52.25 36.03 55.21 28.95 52.00 27.00 Z"/>
</g>
<g fill="#FEFAFA" fill-opacity="1.00" stroke="None">
<path d="
M 16.00 28.00 
C 13.61 26.91 11.72 31.54 14.30 32.64 C 16.88 33.74 18.03 28.92 16.00 28.00 Z"/>
</g>
<g fill="#F6A7AA" fill-opacity="1.00" stroke="None">
<path d="
M 26.00 40.00 
C 27.28 39.29 36.72 39.29 38.00 40.00
C 36.20 38.22 27.85 38.17 26.00 40.00 Z"/>
</g>
<g fill="#ED5055" fill-opacity="1.00" stroke="None">
<path d="
M 26.00 42.00 
C 27.28 42.71 36.72 42.71 38.00 42.00
C 39.02 41.00 39.07 41.06 38.00 40.00
C 36.72 39.29 27.28 39.29 26.00 40.00
C 24.98 41.00 24.93 40.94 26.00 42.00 Z"/>
</g>
<g fill="#F6A7AA" fill-opacity="1.00" stroke="None">
<path d="
M 38.00 42.00 
C 36.72 42.71 27.28 42.71 26.00 42.00
C 27.80 43.78 36.15 43.83 38.00 42.00 Z"/>
</g>
<g fill="#484F58" fill-opacity="0.90" stroke="None">
<path d="
M 23.00 52.00 
C 22.84 52.44 23.00 53.00 23.00 53.00
C 22.11 66.33 41.89 66.31 41.00 53.00
C 40.97 52.50 41.00 52.00 41.00 52.00
C 39.59 49.49 41.13 45.36 38.00 44.00
C 36.50 48.81 41.08 60.03 32.01 59.99 C 22.94 59.95 27.62 48.71 26.00 44.00
C 23.18 45.40 23.93 49.39 23.00 52.00 Z"/>
</g>
<g fill="#9FA2A7" fill-opacity="0.62" stroke="None">
<path d="
M 21.00 52.00 
C 21.00 52.00 21.75 52.25 22.00 52.00
C 22.00 52.00 22.11 51.47 22.00 51.00
C 21.98 50.97 20.97 51.98 21.00 52.00 Z"/>
</g>
<g fill="#B8BBBE" fill-opacity="0.67" stroke="None">
<path d="
M 42.00 52.00 
C 42.00 52.00 42.51 52.06 43.00 52.00
C 43.03 51.98 42.02 50.97 42.00 51.00
C 42.00 51.00 41.75 51.75 42.00 52.00 Z"/>
</g>
<g fill="#FFFFFF" fill-opacity="0.38" stroke="None">
<path d="
M 23.00 53.00 
C 23.00 53.00 22.84 52.44 23.00 52.00
C 23.00 52.00 22.25 52.25 22.00 52.00
C 22.26 52.12 22.96 52.79 23.00 53.00 Z"/>
</g>
<g fill="#FFFFFF" fill-opacity="0.44" stroke="None">
<path d="
M 41.00 53.00 
C 41.04 52.79 41.74 52.12 42.00 52.00
C 42.00 52.00 41.25 51.75 41.00 52.00
C 41.00 52.00 40.97 52.50 41.00 53.00 Z"/>
</g>
</svg>