<svg xmlns="http://www.w3.org/2000/svg" xmlns:v="https://svgstorm.com"
viewBox = "0 0 30 30"
width="30"
height="30">
<g fill="None" fill-opacity="0.0" stroke="#000000" stroke-opacity="0.05" stroke-width="0.3"><path d="
M 0.00 30.00 
L 30.00 30.00
L 30.00 0.00
L 0.00 0.00
L 0.00 30.00
M 18.00 10.00 
C 17.99 10.50 18.00 11.00 18.00 11.00
C 18.41 10.81 19.92 11.19 20.00 11.00
C 19.80 11.45 20.79 10.96 20.00 12.00
C 18.26 14.05 14.70 16.71 19.00 18.00
C 14.86 20.70 12.09 25.35 8.00 28.00
C 7.24 24.98 15.09 20.82 11.00 20.00
C 9.64 21.05 11.20 18.78 11.00 19.00
C 13.09 17.42 11.88 16.61 14.00 15.00
C 14.24 14.82 14.00 14.00 14.00 14.00
C 13.14 13.65 11.89 14.28 11.00 14.00
C 12.94 10.17 18.22 8.28 19.00 4.00
C 13.72 6.31 9.00 5.07 6.81 10.25 C 4.62 15.44 5.26 19.37 9.00 24.00
C 2.71 23.14 1.52 13.00 5.32 7.32 C 9.13 1.65 19.28 5.42 24.00 1.00
C 22.48 5.12 19.11 6.85 18.00 10.00
M 12.00 27.00 
C 22.65 24.75 28.41 15.54 22.00 6.00
C 32.45 12.21 25.05 30.06 12.00 27.00 Z"/>
</g>
<g fill="None" fill-opacity="0.0" stroke="#000000" stroke-opacity="0.73" stroke-width="0.3"><path d="
M 14.00 14.00 
C 15.31 14.53 14.43 14.51 14.00 15.00
C 11.88 16.61 13.09 17.42 11.00 19.00
C 10.76 19.18 11.00 20.00 11.00 20.00
C 15.09 20.82 7.24 24.98 8.00 28.00
C 12.09 25.35 14.86 20.70 19.00 18.00
C 14.70 16.71 18.26 14.05 20.00 12.00
C 20.25 11.71 20.00 11.00 20.00 11.00
C 19.92 11.19 18.41 10.81 18.00 11.00
C 16.13 11.85 18.23 9.44 18.00 10.00
C 19.11 6.85 22.48 5.12 24.00 1.00
C 19.28 5.42 9.13 1.65 5.32 7.32 C 1.52 13.00 2.71 23.14 9.00 24.00
C 5.26 19.37 4.62 15.44 6.81 10.25 C 9.00 5.07 13.72 6.31 19.00 4.00
C 18.22 8.28 12.94 10.17 11.00 14.00
C 11.89 14.28 13.14 13.65 14.00 14.00 Z"/>
</g>
<g fill="None" fill-opacity="0.0" stroke="#000000" stroke-opacity="0.75" stroke-width="0.3"><path d="
M 12.00 27.00 
C 25.05 30.06 32.45 12.21 22.00 6.00
C 28.41 15.54 22.65 24.75 12.00 27.00 Z"/>
</g>
<g fill="None" fill-opacity="0.0" stroke="#000000" stroke-opacity="0.44" stroke-width="0.3"><path d="
M 18.00 11.00 
C 18.00 11.00 17.99 10.50 18.00 10.00
C 18.23 9.44 16.13 11.85 18.00 11.00 Z"/>
</g>
<g fill="None" fill-opacity="0.0" stroke="#000000" stroke-opacity="0.25" stroke-width="0.3"><path d="
M 20.00 12.00 
C 20.79 10.96 19.80 11.45 20.00 11.00
C 20.00 11.00 20.25 11.71 20.00 12.00 Z"/>
</g>
<g fill="None" fill-opacity="0.0" stroke="#000000" stroke-opacity="0.44" stroke-width="0.3"><path d="
M 14.00 15.00 
C 14.43 14.51 15.31 14.53 14.00 14.00
C 14.00 14.00 14.24 14.82 14.00 15.00 Z"/>
</g>
<g fill="None" fill-opacity="0.0" stroke="#000000" stroke-opacity="0.25" stroke-width="0.3"><path d="
M 11.00 20.00 
C 11.00 20.00 10.76 19.18 11.00 19.00
C 11.20 18.78 9.64 21.05 11.00 20.00 Z"/>
</g>
<g fill="#000000" fill-opacity="0.05" stroke="None">
<path d="
M 0.00 30.00 
L 30.00 30.00
L 30.00 0.00
L 0.00 0.00
L 0.00 30.00
M 18.00 10.00 
C 17.99 10.50 18.00 11.00 18.00 11.00
C 18.41 10.81 19.92 11.19 20.00 11.00
C 19.80 11.45 20.79 10.96 20.00 12.00
C 18.26 14.05 14.70 16.71 19.00 18.00
C 14.86 20.70 12.09 25.35 8.00 28.00
C 7.24 24.98 15.09 20.82 11.00 20.00
C 9.64 21.05 11.20 18.78 11.00 19.00
C 13.09 17.42 11.88 16.61 14.00 15.00
C 14.24 14.82 14.00 14.00 14.00 14.00
C 13.14 13.65 11.89 14.28 11.00 14.00
C 12.94 10.17 18.22 8.28 19.00 4.00
C 13.72 6.31 9.00 5.07 6.81 10.25 C 4.62 15.44 5.26 19.37 9.00 24.00
C 2.71 23.14 1.52 13.00 5.32 7.32 C 9.13 1.65 19.28 5.42 24.00 1.00
C 22.48 5.12 19.11 6.85 18.00 10.00
M 12.00 27.00 
C 22.65 24.75 28.41 15.54 22.00 6.00
C 32.45 12.21 25.05 30.06 12.00 27.00 Z"/>
</g>
<g fill="#000000" fill-opacity="0.73" stroke="None">
<path d="
M 14.00 14.00 
C 15.31 14.53 14.43 14.51 14.00 15.00
C 11.88 16.61 13.09 17.42 11.00 19.00
C 10.76 19.18 11.00 20.00 11.00 20.00
C 15.09 20.82 7.24 24.98 8.00 28.00
C 12.09 25.35 14.86 20.70 19.00 18.00
C 14.70 16.71 18.26 14.05 20.00 12.00
C 20.25 11.71 20.00 11.00 20.00 11.00
C 19.92 11.19 18.41 10.81 18.00 11.00
C 16.13 11.85 18.23 9.44 18.00 10.00
C 19.11 6.85 22.48 5.12 24.00 1.00
C 19.28 5.42 9.13 1.65 5.32 7.32 C 1.52 13.00 2.71 23.14 9.00 24.00
C 5.26 19.37 4.62 15.44 6.81 10.25 C 9.00 5.07 13.72 6.31 19.00 4.00
C 18.22 8.28 12.94 10.17 11.00 14.00
C 11.89 14.28 13.14 13.65 14.00 14.00 Z"/>
</g>
<g fill="#000000" fill-opacity="0.75" stroke="None">
<path d="
M 12.00 27.00 
C 25.05 30.06 32.45 12.21 22.00 6.00
C 28.41 15.54 22.65 24.75 12.00 27.00 Z"/>
</g>
<g fill="#000000" fill-opacity="0.44" stroke="None">
<path d="
M 18.00 11.00 
C 18.00 11.00 17.99 10.50 18.00 10.00
C 18.23 9.44 16.13 11.85 18.00 11.00 Z"/>
</g>
<g fill="#000000" fill-opacity="0.25" stroke="None">
<path d="
M 20.00 12.00 
C 20.79 10.96 19.80 11.45 20.00 11.00
C 20.00 11.00 20.25 11.71 20.00 12.00 Z"/>
</g>
<g fill="#000000" fill-opacity="0.44" stroke="None">
<path d="
M 14.00 15.00 
C 14.43 14.51 15.31 14.53 14.00 14.00
C 14.00 14.00 14.24 14.82 14.00 15.00 Z"/>
</g>
<g fill="#000000" fill-opacity="0.25" stroke="None">
<path d="
M 11.00 20.00 
C 11.00 20.00 10.76 19.18 11.00 19.00
C 11.20 18.78 9.64 21.05 11.00 20.00 Z"/>
</g>
</svg>