<svg xmlns="http://www.w3.org/2000/svg" xmlns:v="https://svgstorm.com"
viewBox = "0 0 30 30"
width="30"
height="30">
<g fill="None" fill-opacity="0.0" stroke="#000000" stroke-opacity="0.03" stroke-width="0.3"><path d="
M 0.00 30.00 
L 30.00 30.00
L 30.00 0.00
L 0.00 0.00
L 0.00 30.00
M 25.00 4.00 
C 29.39 13.17 23.39 27.71 14.30 26.65 C 5.21 25.58 2.06 13.75 5.00 4.00
C 11.11 3.29 18.83 3.28 25.00 4.00 Z"/>
</g>
<g fill="None" fill-opacity="0.0" stroke="#000000" stroke-opacity="0.81" stroke-width="0.3"><path d="
M 25.00 4.00 
C 18.83 3.28 11.11 3.29 5.00 4.00
C 2.06 13.75 5.21 25.58 14.30 26.65 C 23.39 27.71 29.39 13.17 25.00 4.00
M 15.00 17.00 
C 14.64 16.77 14.00 17.00 14.00 17.00
C 11.62 18.86 8.83 15.88 6.00 16.00
C 6.00 12.67 6.00 9.33 6.00 6.00
C 11.86 5.22 17.92 5.37 24.00 6.00
C 23.62 9.66 24.92 13.75 23.00 17.00
C 19.90 14.52 17.90 19.24 15.00 17.00
M 17.00 24.00 
C 15.95 24.42 16.98 25.07 16.00 24.00
C 14.94 20.95 15.22 22.67 14.00 24.00
C 12.90 25.20 13.95 24.38 13.00 24.00
C 11.36 23.97 8.40 20.46 8.00 18.00
C 12.41 21.88 18.57 18.74 23.00 19.00
C 20.54 20.47 19.00 23.59 17.00 24.00 Z"/>
</g>
<g fill="None" fill-opacity="0.0" stroke="#000000" stroke-opacity="0.05" stroke-width="0.3"><path d="
M 14.00 17.00 
C 14.71 14.90 16.11 14.62 15.00 17.00
C 17.90 19.24 19.90 14.52 23.00 17.00
C 24.92 13.75 23.62 9.66 24.00 6.00
C 17.92 5.37 11.86 5.22 6.00 6.00
C 6.00 9.33 6.00 12.67 6.00 16.00
C 8.83 15.88 11.62 18.86 14.00 17.00
M 12.00 8.00 
C 16.17 6.89 12.07 16.79 8.00 13.00
C 6.52 9.98 13.28 11.84 11.00 10.00
C 10.01 10.41 7.31 10.28 7.00 9.00
C 8.68 7.99 10.01 8.80 12.00 8.00
M 19.00 10.00 
C 20.11 10.94 22.29 10.85 22.00 13.00
C 19.18 13.32 17.33 13.09 17.00 11.00
C 14.64 9.79 16.84 7.08 19.00 8.00
C 19.41 7.75 22.27 8.89 23.00 9.00
C 22.47 10.60 20.25 9.72 19.00 10.00 Z"/>
</g>
<g fill="None" fill-opacity="0.0" stroke="#000000" stroke-opacity="0.45" stroke-width="0.3"><path d="
M 11.00 10.00 
C 11.14 9.74 12.24 8.30 12.00 8.00
C 10.01 8.80 8.68 7.99 7.00 9.00
C 7.31 10.28 10.01 10.41 11.00 10.00 Z"/>
</g>
<g fill="None" fill-opacity="0.0" stroke="#000000" stroke-opacity="0.63" stroke-width="0.3"><path d="
M 11.00 10.00 
C 13.28 11.84 6.52 9.98 8.00 13.00
C 12.07 16.79 16.17 6.89 12.00 8.00
C 12.24 8.30 11.14 9.74 11.00 10.00
M 13.00 9.00 
C 13.74 9.74 12.18 8.18 13.00 9.00 Z"/>
</g>
<g fill="None" fill-opacity="0.0" stroke="#000000" stroke-opacity="0.65" stroke-width="0.3"><path d="
M 19.00 10.00 
C 18.75 9.79 19.12 8.03 19.00 8.00
C 16.84 7.08 14.64 9.79 17.00 11.00
C 17.33 13.09 19.18 13.32 22.00 13.00
C 22.29 10.85 20.11 10.94 19.00 10.00 Z"/>
</g>
<g fill="None" fill-opacity="0.0" stroke="#000000" stroke-opacity="0.39" stroke-width="0.3"><path d="
M 19.00 10.00 
C 20.25 9.72 22.47 10.60 23.00 9.00
C 22.27 8.89 19.41 7.75 19.00 8.00
C 19.12 8.03 18.75 9.79 19.00 10.00 Z"/>
</g>
<g fill="None" fill-opacity="0.0" stroke="#000000" stroke-opacity="1.00" stroke-width="0.3"><path d="
M 13.00 9.00 
C 12.18 8.18 13.74 9.74 13.00 9.00 Z"/>
</g>
<g fill="None" fill-opacity="0.0" stroke="#000000" stroke-opacity="0.35" stroke-width="0.3"><path d="
M 14.00 17.00 
C 14.00 17.00 14.64 16.77 15.00 17.00
C 16.11 14.62 14.71 14.90 14.00 17.00 Z"/>
</g>
<g fill="None" fill-opacity="0.0" stroke="#000000" stroke-opacity="0.06" stroke-width="0.3"><path d="
M 13.00 24.00 
C 13.50 24.01 14.00 24.00 14.00 24.00
C 15.22 22.67 14.94 20.95 16.00 24.00
C 16.05 24.15 17.00 24.00 17.00 24.00
C 19.00 23.59 20.54 20.47 23.00 19.00
C 18.57 18.74 12.41 21.88 8.00 18.00
C 8.40 20.46 11.36 23.97 13.00 24.00 Z"/>
</g>
<g fill="None" fill-opacity="0.0" stroke="#000000" stroke-opacity="0.56" stroke-width="0.3"><path d="
M 14.00 24.00 
C 14.00 24.00 13.50 24.01 13.00 24.00
C 13.95 24.38 12.90 25.20 14.00 24.00 Z"/>
</g>
<g fill="None" fill-opacity="0.0" stroke="#000000" stroke-opacity="0.56" stroke-width="0.3"><path d="
M 17.00 24.00 
C 17.00 24.00 16.05 24.15 16.00 24.00
C 16.98 25.07 15.95 24.42 17.00 24.00 Z"/>
</g>
<g fill="#000000" fill-opacity="0.03" stroke="None">
<path d="
M 0.00 30.00 
L 30.00 30.00
L 30.00 0.00
L 0.00 0.00
L 0.00 30.00
M 25.00 4.00 
C 29.39 13.17 23.39 27.71 14.30 26.65 C 5.21 25.58 2.06 13.75 5.00 4.00
C 11.11 3.29 18.83 3.28 25.00 4.00 Z"/>
</g>
<g fill="#000000" fill-opacity="0.81" stroke="None">
<path d="
M 25.00 4.00 
C 18.83 3.28 11.11 3.29 5.00 4.00
C 2.06 13.75 5.21 25.58 14.30 26.65 C 23.39 27.71 29.39 13.17 25.00 4.00
M 15.00 17.00 
C 14.64 16.77 14.00 17.00 14.00 17.00
C 11.62 18.86 8.83 15.88 6.00 16.00
C 6.00 12.67 6.00 9.33 6.00 6.00
C 11.86 5.22 17.92 5.37 24.00 6.00
C 23.62 9.66 24.92 13.75 23.00 17.00
C 19.90 14.52 17.90 19.24 15.00 17.00
M 17.00 24.00 
C 15.95 24.42 16.98 25.07 16.00 24.00
C 14.94 20.95 15.22 22.67 14.00 24.00
C 12.90 25.20 13.95 24.38 13.00 24.00
C 11.36 23.97 8.40 20.46 8.00 18.00
C 12.41 21.88 18.57 18.74 23.00 19.00
C 20.54 20.47 19.00 23.59 17.00 24.00 Z"/>
</g>
<g fill="#000000" fill-opacity="0.05" stroke="None">
<path d="
M 14.00 17.00 
C 14.71 14.90 16.11 14.62 15.00 17.00
C 17.90 19.24 19.90 14.52 23.00 17.00
C 24.92 13.75 23.62 9.66 24.00 6.00
C 17.92 5.37 11.86 5.22 6.00 6.00
C 6.00 9.33 6.00 12.67 6.00 16.00
C 8.83 15.88 11.62 18.86 14.00 17.00
M 12.00 8.00 
C 16.17 6.89 12.07 16.79 8.00 13.00
C 6.52 9.98 13.28 11.84 11.00 10.00
C 10.01 10.41 7.31 10.28 7.00 9.00
C 8.68 7.99 10.01 8.80 12.00 8.00
M 19.00 10.00 
C 20.11 10.94 22.29 10.85 22.00 13.00
C 19.18 13.32 17.33 13.09 17.00 11.00
C 14.64 9.79 16.84 7.08 19.00 8.00
C 19.41 7.75 22.27 8.89 23.00 9.00
C 22.47 10.60 20.25 9.72 19.00 10.00 Z"/>
</g>
<g fill="#000000" fill-opacity="0.45" stroke="None">
<path d="
M 11.00 10.00 
C 11.14 9.74 12.24 8.30 12.00 8.00
C 10.01 8.80 8.68 7.99 7.00 9.00
C 7.31 10.28 10.01 10.41 11.00 10.00 Z"/>
</g>
<g fill="#000000" fill-opacity="0.63" stroke="None">
<path d="
M 11.00 10.00 
C 13.28 11.84 6.52 9.98 8.00 13.00
C 12.07 16.79 16.17 6.89 12.00 8.00
C 12.24 8.30 11.14 9.74 11.00 10.00
M 13.00 9.00 
C 13.74 9.74 12.18 8.18 13.00 9.00 Z"/>
</g>
<g fill="#000000" fill-opacity="0.65" stroke="None">
<path d="
M 19.00 10.00 
C 18.75 9.79 19.12 8.03 19.00 8.00
C 16.84 7.08 14.64 9.79 17.00 11.00
C 17.33 13.09 19.18 13.32 22.00 13.00
C 22.29 10.85 20.11 10.94 19.00 10.00 Z"/>
</g>
<g fill="#000000" fill-opacity="0.39" stroke="None">
<path d="
M 19.00 10.00 
C 20.25 9.72 22.47 10.60 23.00 9.00
C 22.27 8.89 19.41 7.75 19.00 8.00
C 19.12 8.03 18.75 9.79 19.00 10.00 Z"/>
</g>
<g fill="#000000" fill-opacity="1.00" stroke="None">
<path d="
M 13.00 9.00 
C 12.18 8.18 13.74 9.74 13.00 9.00 Z"/>
</g>
<g fill="#000000" fill-opacity="0.35" stroke="None">
<path d="
M 14.00 17.00 
C 14.00 17.00 14.64 16.77 15.00 17.00
C 16.11 14.62 14.71 14.90 14.00 17.00 Z"/>
</g>
<g fill="#000000" fill-opacity="0.06" stroke="None">
<path d="
M 13.00 24.00 
C 13.50 24.01 14.00 24.00 14.00 24.00
C 15.22 22.67 14.94 20.95 16.00 24.00
C 16.05 24.15 17.00 24.00 17.00 24.00
C 19.00 23.59 20.54 20.47 23.00 19.00
C 18.57 18.74 12.41 21.88 8.00 18.00
C 8.40 20.46 11.36 23.97 13.00 24.00 Z"/>
</g>
<g fill="#000000" fill-opacity="0.56" stroke="None">
<path d="
M 14.00 24.00 
C 14.00 24.00 13.50 24.01 13.00 24.00
C 13.95 24.38 12.90 25.20 14.00 24.00 Z"/>
</g>
<g fill="#000000" fill-opacity="0.56" stroke="None">
<path d="
M 17.00 24.00 
C 17.00 24.00 16.05 24.15 16.00 24.00
C 16.98 25.07 15.95 24.42 17.00 24.00 Z"/>
</g>
</svg>