<svg xmlns="http://www.w3.org/2000/svg"  viewBox="0 0 30 30" width="30px" height="30px"><path d="M 15 2 C 8.8825163 2 4 7.4336968 4 14 L 4 18 C 4 19.516667 4.6641977 20.596554 5.3417969 21.189453 C 5.7549533 21.550965 5.9278894 21.556643 6.2050781 21.666016 C 6.5684123 22.604976 8.8910109 28 15 28 C 19.701649 28 22.146293 24.82033 23.195312 22.919922 C 23.226516 23.079146 23.258061 23.226812 23.287109 23.408203 C 23.47954 24.609825 23.583639 26.248931 24.755859 27.421875 A 1.0001 1.0001 0 1 0 26.169922 26.007812 C 25.723142 25.560758 25.463991 24.342675 25.263672 23.091797 C 25.163512 22.466358 25.072318 21.850013 24.800781 21.251953 C 24.780349 21.20695 24.747829 21.162374 24.724609 21.117188 C 25.377844 20.512631 26 19.465672 26 18 L 26 14 C 26 12.671 26.01489 11.244402 25.685547 9.9101562 C 25.376478 8.6580491 24.65907 7.4340727 23.369141 6.7617188 C 21.474593 4.290188 18.898047 2 15 2 z M 15 4 C 17.256971 4 18.878169 4.8943722 20.255859 6.2324219 C 19.524842 6.1469765 18.809961 6.085373 18.128906 6.0566406 C 13.693513 5.8695203 10.472656 6.734375 10.472656 6.734375 A 1.0001 1.0001 0 1 0 10.988281 8.6660156 C 10.988281 8.6660156 16.288267 7.2647977 22.466797 8.6191406 A 1.0001 1.0001 0 0 0 22.626953 8.6445312 C 23.226107 9.0124605 23.537256 9.5524925 23.744141 10.390625 C 23.760843 10.458289 23.768604 10.538728 23.783203 10.609375 C 21.825083 10.032403 19.825188 9.7151904 17.892578 9.5996094 C 13.014541 9.307875 8.6279515 10.178904 6.5097656 10.699219 C 7.7417299 6.7742505 11.097474 4 15 4 z M 16.232422 11.572266 C 18.758327 11.58819 21.453254 11.902161 23.976562 12.755859 C 23.986576 13.167495 24 13.572872 24 14 L 24 14.507812 C 22.763453 14.370976 19.19994 14 15 14 C 11.327598 14 7.6912829 14.53579 6 14.822266 L 6 14 C 6 13.625143 6.0209129 13.255929 6.0566406 12.892578 C 6.6415157 12.725229 10.932502 11.538853 16.232422 11.572266 z M 9.0644531 16 L 12.046875 16.888672 C 11.801875 17.711672 10.934328 18.180547 10.111328 17.935547 C 9.2883281 17.689547 8.8194531 16.823 9.0644531 16 z M 20.935547 16 C 21.180547 16.823 20.711672 17.689547 19.888672 17.935547 C 19.065672 18.180547 18.199125 17.711672 17.953125 16.888672 L 20.935547 16 z M 6.0488281 18.550781 C 7.2918962 19.142986 9.5088577 20 12 20 L 18 20 C 20.517701 20 22.717293 19.150581 23.951172 18.558594 C 23.849483 19.150391 23.593711 19.465122 23.341797 19.685547 C 23.019396 19.967648 22.757812 20.029297 22.757812 20.029297 L 22.224609 20.162109 L 22.050781 20.683594 C 22.050781 20.683594 20.333333 26 15 26 C 12.436615 26 10.71489 24.771802 9.6113281 23.496094 C 11.828973 24.096396 14.915822 24.473307 18.900391 23.591797 A 1.0001264 1.0001264 0 1 0 18.46875 21.638672 C 13.234819 22.79658 9.9444359 21.653027 8.015625 20.841797 C 8.0076436 20.818869 7.9492188 20.683594 7.9492188 20.683594 L 7.7753906 20.162109 L 7.2421875 20.029297 C 7.2421875 20.029297 6.9806039 19.967647 6.6582031 19.685547 C 6.4053106 19.464266 6.1496739 19.147118 6.0488281 18.550781 z"/></svg>